:SAMPLES-PER-SECOND 30
:FULLY-SPECIFIED
:DEGREES
528
root  -23.9106 38.2014 0.123627 -132.271 -78.1729 123.802
RightUpLeg  -5.02347 3.9833 -12.6433
RightLeg  66.6435 5.10238 12.2056
RightFoot  5.86665 -1.87606 12.5852
RightToes  -1.74624e-010 0 -3.6325e-017
Spine  6.29853 2.11214 -4.74364
Spine1  6.88916 3.07757 -8.37982
HEad  -15.6736 -2.81445 -2.83065
LeftShoulder1  -0.691607 5.19521 -34.6995
LeftArm  2.98603 5.71714 -40.4172
LeftForeArm  24.9377 -14.5619 -7.38898
LeftHand  -0.0148065 7.5504 1.41164
RightShoulder  -0.989578 -6.08089 31.8072
RightArm  20.8403 1.05371 48.7562
RightForeArm  32.1182 4.10034 10.2476
RightHand  0.104454 1.27755 1.70275
LeftUpLeg  -12.9064 8.95355 -12.1286
LeftLeg  23.8069 0.694842 0.386107
LeftFoot  -3.91619 -0.478305 7.72608
LeftToes  -3.96543e-010 8.93632e-011 -2.58531e-011
529
root  -24.9931 38.4208 0.0904337 -133.631 -78.3953 125.482
RightUpLeg  -10.586 3.69087 -12.5854
RightLeg  68.264 3.76773 9.71664
RightFoot  3.61055 -1.29055 10.0241
RightToes  -1.74624e-010 0 -3.6325e-017
Spine  7.03974 1.1915 -6.41583
Spine1  5.76163 1.47783 -6.33778
HEad  -16.1265 -2.93766 -2.8923
LeftShoulder1  -0.633901 5.07724 -34.1254
LeftArm  6.02417 4.11831 -41.8499
LeftForeArm  21.1916 -18.0654 -5.74575
LeftHand  -0.00662917 6.41019 2.76752
RightShoulder  -0.987369 -6.08686 31.6256
RightArm  24.6089 -1.44771 46.6392
RightForeArm  25.9154 8.48077 9.97972
RightHand  0.118381 1.61729 1.82872
LeftUpLeg  -11.0037 9.42805 -11.4203
LeftLeg  23.3206 0.468208 -0.202299
LeftFoot  -5.42857 -0.382037 8.00935
LeftToes  -3.96543e-010 8.93632e-011 -2.58531e-011
530
root  -26.1504 38.7089 0.0246623 -135.297 -79.1823 127.061
RightUpLeg  -14.1896 2.9758 -11.7411
RightLeg  65.5943 3.07519 6.8219
RightFoot  2.57483 -0.943511 7.85723
RightToes  -1.74624e-010 0 -3.6325e-017
Spine  6.99907 0.252665 -7.63853
Spine1  5.86484 -0.043823 -3.90125
HEad  -16.4783 -4.45144 -2.5376
LeftShoulder1  -0.617052 5.04408 -33.8954
LeftArm  8.14742 1.86526 -42.4783
LeftForeArm  18.7742 -20.8266 -4.60243
LeftHand  -0.0249871 5.40272 3.32245
RightShoulder  -0.911116 -5.93541 30.8723
RightArm  29.2131 -4.12739 45.0405
RightForeArm  17.2184 13.0712 8.56659
RightHand  0.100789 3.13346 1.13947
LeftUpLeg  -8.00135 8.5938 -10.0958
LeftLeg  21.913 0.967837 -0.746407
LeftFoot  -6.69368 -0.283449 7.96762
LeftToes  -3.96543e-010 8.93632e-011 -2.58531e-011
531
root  -27.2763 39.0033 -0.0342626 -139.42 -79.6639 130.644
RightUpLeg  -16.1675 2.85418 -10.5766
RightLeg  59.2614 2.57667 4.23352
RightFoot  1.1739 -0.651421 6.03458
RightToes  -1.74624e-010 0 -3.6325e-017
Spine  7.97845 -0.415542 -8.10237
Spine1  5.1866 -1.09347 -2.23881
HEad  -16.4987 -6.36004 -1.37615
LeftShoulder1  -0.548579 4.89775 -33.1913
LeftArm  7.94184 0.427894 -42.9364
LeftForeArm  18.5604 -23.7857 -4.08193
LeftHand  -0.0252899 5.40106 4.25279
RightShoulder  -0.916998 -5.96854 30.6091
RightArm  32.6643 -6.16005 43.3659
RightForeArm  11.3672 16.5114 6.97252
RightHand  0.0793627 5.08118 0.570142
LeftUpLeg  -4.15594 7.82618 -8.60532
LeftLeg  19.5932 1.86295 -1.48129
LeftFoot  -7.54839 -0.217591 7.93389
LeftToes  -3.96543e-010 8.93632e-011 -2.58531e-011
532
root  -28.3688 39.2064 -0.132997 -141.854 -79.8276 133.372
RightUpLeg  -17.7446 2.28556 -9.66876
RightLeg  49.905 1.77093 1.92354
RightFoot  -0.884735 -0.550936 5.93592
RightToes  -1.74624e-010 0 -3.6325e-017
Spine  7.8656 -1.01019 -8.64461
Spine1  4.90366 -1.865 -1.00731
HEad  -16.5095 -9.27607 -0.346989
LeftShoulder1  -0.471597 4.72582 -32.4607
LeftArm  5.58752 -1.13974 -43.1739
LeftForeArm  19.3773 -26.3914 -4.62642
LeftHand  -0.0206368 5.42195 6.15795
RightShoulder  -0.92262 -5.99894 30.3865
RightArm  33.6469 -7.63785 42.2748
RightForeArm  9.38311 18.5232 5.88673
RightHand  0.0350622 4.65964 0.10535
LeftUpLeg  -1.49823 6.87679 -7.77615
LeftLeg  17.5967 2.81196 -1.9425
LeftFoot  -8.44054 -0.145188 7.72404
LeftToes  -3.96543e-010 8.93632e-011 -2.58531e-011
533
root  -29.4905 39.3519 -0.217559 -145.463 -79.4461 137.16
RightUpLeg  -17.9332 1.3511 -8.73005
RightLeg  38.1487 0.476894 0.178216
RightFoot  -1.57138 -0.435657 4.97634
RightToes  -1.74624e-010 0 -3.6325e-017
Spine  7.84685 -1.41479 -9.01356
Spine1  4.47111 -2.37138 0.0533018
HEad  -16.547 -12.1705 0.552503
LeftShoulder1  -0.462621 4.71115 -32.179
LeftArm  4.07821 -2.34682 -42.6298
LeftForeArm  20.2657 -28.9289 -5.15773
LeftHand  -0.0152992 5.56483 6.18869
RightShoulder  -0.94944 -6.07184 30.3883
RightArm  32.837 -8.4049 41.421
RightForeArm  9.93623 18.8868 5.60349
RightHand  0.032392 3.93432 0.131746
LeftUpLeg  1.33458 6.05872 -7.50691
LeftLeg  15.4015 4.26177 -1.84228
LeftFoot  -9.40694 -0.0650127 7.18871
LeftToes  -3.96543e-010 8.93632e-011 -2.58531e-011
534
root  -30.6449 39.4609 -0.33923 -148.324 -78.9726 140.362
RightUpLeg  -17.1379 -1.35244 -7.31076
RightLeg  25.1633 -0.42399 -0.565035
RightFoot  -1.53437 -0.432702 4.92386
RightToes  -1.74624e-010 0 -3.6325e-017
Spine  7.40771 -1.75789 -9.56821
Spine1  4.23749 -2.90215 1.61568
HEad  -16.405 -15.5502 1.0886
LeftShoulder1  -0.424477 4.6124 -32.1476
LeftArm  1.80827 -2.83618 -41.9554
LeftForeArm  22.6755 -31.214 -5.56291
LeftHand  -0.0181571 5.51601 4.9813
RightShoulder  -0.900296 -5.96808 29.9452
RightArm  30.0672 -8.91501 41.2719
RightForeArm  11.6841 17.5637 6.01138
RightHand  0.0780299 4.42902 0.640209
LeftUpLeg  4.00083 5.81764 -7.43665
LeftLeg  13.2674 5.11808 -1.59023
LeftFoot  -10.2654 0.00116272 6.4875
LeftToes  -3.96543e-010 8.93632e-011 -2.58531e-011
535
root  -31.8154 39.4817 -0.464607 -151.146 -78.0732 143.511
RightUpLeg  -15.9061 -6.51347 -5.39616
RightLeg  13.5821 0.366894 0.15554
RightFoot  -1.33881 -0.485673 5.39709
RightToes  -1.74624e-010 0 -3.6325e-017
Spine  6.58994 -2.02654 -9.3227
Spine1  4.60381 -3.10074 2.07041
HEad  -16.6321 -18.9129 1.64723
LeftShoulder1  -0.381001 4.51132 -31.6777
LeftArm  0.660655 -3.12539 -41.3668
LeftForeArm  22.8644 -32.8061 -5.94379
LeftHand  -0.0531388 4.59075 4.64948
RightShoulder  -0.935943 -6.06087 30.0174
RightArm  26.2751 -8.69543 41.3043
RightForeArm  13.4074 15.2341 6.79132
RightHand  -0.0110256 4.28678 -0.411996
LeftUpLeg  6.39065 5.64043 -7.73042
LeftLeg  11.6875 6.15998 -1.11136
LeftFoot  -11.2117 0.0603752 5.79253
LeftToes  -3.96543e-010 8.93632e-011 -2.58531e-011
536
root  -33.049 39.371 -0.651269 -153.799 -77.014 146.073
RightUpLeg  -14.4027 -10.2682 -3.90395
RightLeg  6.44542 -3.76146 1.40308
RightFoot  0.0160465 -0.715792 7.16953
RightToes  -1.74624e-010 0 -3.6325e-017
Spine  5.91538 -2.05194 -9.14448
Spine1  4.95981 -3.14736 2.54715
HEad  -15.9368 -21.5213 1.58782
LeftShoulder1  -0.340799 4.40915 -31.5104
LeftArm  -0.122386 -2.97698 -40.8826
LeftForeArm  22.9515 -33.7124 -6.16869
LeftHand  -0.0430808 4.85443 4.51914
RightShoulder  -0.993794 -6.19626 30.3476
RightArm  21.8324 -8.43074 41.197
RightForeArm  16.2719 12.4035 7.40868
RightHand  -0.0452093 4.37937 -0.826034
LeftUpLeg  8.73463 5.88378 -7.83001
LeftLeg  11.4749 7.00607 -0.874683
LeftFoot  -12.9729 0.150159 5.04492
LeftToes  -3.96543e-010 8.93632e-011 -2.58531e-011
537
root  -34.264 39.2398 -0.835876 -157.757 -75.5881 149.953
RightUpLeg  -13.1096 -9.87358 -3.15631
RightLeg  4.0451 -13.2016 3.05519
RightFoot  0.964442 -0.449935 4.32518
RightToes  -1.74624e-010 0 -3.6325e-017
Spine  5.25677 -2.00146 -7.75336
Spine1  5.44461 -2.93794 2.3381
HEad  -15.9812 -22.9573 1.32072
LeftShoulder1  -0.367555 4.4774 -31.6309
LeftArm  -0.492956 -2.51057 -40.2139
LeftForeArm  22.838 -33.9182 -6.22864
LeftHand  -0.053316 4.58467 4.83477
RightShoulder  -0.956372 -6.09575 30.3182
RightArm  17.9286 -8.25456 41.6707
RightForeArm  18.8185 9.73309 7.59705
RightHand  -0.0295638 4.71061 -0.653094
LeftUpLeg  10.9307 6.41207 -7.80816
LeftLeg  11.5098 7.93552 -0.465994
LeftFoot  -14.8183 0.218786 4.26511
LeftToes  -3.96543e-010 8.93632e-011 -2.58531e-011
538
root  -35.4881 39.1579 -1.01717 -163.719 -73.6396 155.83
RightUpLeg  -13.5484 -10.194 -1.09296
RightLeg  7.34772 -15.4847 2.67171
RightFoot  2.69851 0.855241 -6.63815
RightToes  -1.74624e-010 0 -3.6325e-017
Spine  4.94029 -1.81752 -4.91537
Spine1  5.7138 -2.43835 1.60814
HEad  -15.6281 -23.9876 0.426128
LeftShoulder1  -0.433753 4.64685 -31.7496
LeftArm  -0.21343 -1.31981 -39.4327
LeftForeArm  22.6298 -33.4324 -6.11609
LeftHand  -0.0655718 4.15329 4.33018
RightShoulder  -1.00611 -6.1975 30.7879
RightArm  16.4434 -7.74565 41.7871
RightForeArm  19.5328 7.61031 7.719
RightHand  -0.108216 3.80653 -1.61341
LeftUpLeg  13.0052 9.12788 -6.66736
LeftLeg  12.135 7.06888 -0.0502641
LeftFoot  -16.2071 0.208275 2.61533
LeftToes  -3.96543e-010 8.93632e-011 -2.58531e-011
539
root  -36.7417 39.0008 -1.21491 -169.861 -71.4159 161.553
RightUpLeg  -14.8871 -10.6827 1.31923
RightLeg  13.5589 -12.1443 0.247005
RightFoot  3.70873 1.80639 -13.4907
RightToes  -1.74624e-010 0 -3.6325e-017
Spine  5.34748 -1.66361 -1.27027
Spine1  5.61384 -1.84238 0.449491
HEad  -16.2086 -24.0553 -0.32758
LeftShoulder1  -0.583577 5.00569 -32.7307
LeftArm  0.797411 0.126006 -38.1287
LeftForeArm  22.1263 -32.7334 -5.96851
LeftHand  -0.0702637 4.25948 5.09239
RightShoulder  -1.02996 -6.24211 31.0378
RightArm  15.4278 -7.30167 41.9547
RightForeArm  21.2617 6.45735 7.47475
RightHand  -0.025154 3.74418 -0.584983
LeftUpLeg  13.8633 14.6799 -4.11278
LeftLeg  16.7253 2.68265 0.613343
LeftFoot  -17.6931 0.054542 -0.699793
LeftToes  -3.96543e-010 8.93632e-011 -2.58531e-011
